<svg width="38" height="38" viewBox="0 0 38 38" fill="none" xmlns="http://www.w3.org/2000/svg">
<path d="M19 19C26.2142 19 32.0625 15.81 32.0625 11.875C32.0625 7.93997 26.2142 4.75 19 4.75C11.7858 4.75 5.9375 7.93997 5.9375 11.875C5.9375 15.81 11.7858 19 19 19Z" stroke="#6D737A" stroke-width="1.5" stroke-linecap="round" stroke-linejoin="round"/>
<path d="M5.9375 11.875V19C5.9375 22.9336 11.7859 26.125 19 26.125C26.2141 26.125 32.0625 22.9336 32.0625 19V11.875" stroke="#6D737A" stroke-width="1.5" stroke-linecap="round" stroke-linejoin="round"/>
<path d="M5.9375 19V26.125C5.9375 30.0586 11.7859 33.25 19 33.25C26.2141 33.25 32.0625 30.0586 32.0625 26.125V19" stroke="#6D737A" stroke-width="1.5" stroke-linecap="round" stroke-linejoin="round"/>
</svg>
