<svg width="38" height="38" viewBox="0 0 38 38" fill="none" xmlns="http://www.w3.org/2000/svg">
<path d="M24.9375 22.5625C30.1842 22.5625 34.4375 18.3092 34.4375 13.0625C34.4375 7.81579 30.1842 3.5625 24.9375 3.5625C19.6908 3.5625 15.4375 7.81579 15.4375 13.0625C15.4375 18.3092 19.6908 22.5625 24.9375 22.5625Z" stroke="#6D737A" stroke-width="1.5" stroke-linecap="round" stroke-linejoin="round"/>
<path d="M31.6617 19.7867L18.2133 6.33826" stroke="#6D737A" stroke-width="1.5" stroke-linecap="round" stroke-linejoin="round"/>
<path d="M14.8438 23.1562L13.0625 24.9375" stroke="#6D737A" stroke-width="1.5" stroke-linecap="round" stroke-linejoin="round"/>
<path d="M15.5563 14.532L4.17109 30.0585C3.99995 30.2864 3.91762 30.5687 3.93947 30.8528C3.96133 31.1369 4.08587 31.4033 4.28984 31.6023L6.39766 33.7101C6.59662 33.9141 6.86305 34.0386 7.14715 34.0605C7.43125 34.0823 7.71359 34 7.94141 33.8289L23.468 22.4437" stroke="#6D737A" stroke-width="1.5" stroke-linecap="round" stroke-linejoin="round"/>
</svg>
